<mxfile host="app.diagrams.net" agent="Mozilla/5.0 (Windows NT 10.0; Win64; x64) AppleWebKit/537.36 (KHTML, like Gecko) Chrome/137.0.0.0 Safari/537.36" version="27.1.6">
  <diagram name="Page-1" id="QzU7fTm-nxsdHbk5rkGm">
    <mxGraphModel dx="727" dy="388" grid="1" gridSize="10" guides="1" tooltips="1" connect="1" arrows="1" fold="1" page="1" pageScale="1" pageWidth="850" pageHeight="1100" math="0" shadow="0">
      <root>
        <mxCell id="0" />
        <mxCell id="1" parent="0" />
        <mxCell id="gzk71SnyMcRQOthhY-ZL-1" value="" style="ellipse;whiteSpace=wrap;html=1;aspect=fixed;" vertex="1" parent="1">
          <mxGeometry x="40" y="40" width="40" height="40" as="geometry" />
        </mxCell>
        <mxCell id="gzk71SnyMcRQOthhY-ZL-2" value="" style="endArrow=none;html=1;rounded=0;" edge="1" parent="1">
          <mxGeometry width="50" height="50" relative="1" as="geometry">
            <mxPoint x="60" y="120" as="sourcePoint" />
            <mxPoint x="59.5" y="80" as="targetPoint" />
          </mxGeometry>
        </mxCell>
        <mxCell id="gzk71SnyMcRQOthhY-ZL-3" value="" style="endArrow=none;html=1;rounded=0;" edge="1" parent="1">
          <mxGeometry width="50" height="50" relative="1" as="geometry">
            <mxPoint x="40" y="150" as="sourcePoint" />
            <mxPoint x="60" y="120" as="targetPoint" />
          </mxGeometry>
        </mxCell>
        <mxCell id="gzk71SnyMcRQOthhY-ZL-4" value="" style="endArrow=none;html=1;rounded=0;" edge="1" parent="1">
          <mxGeometry width="50" height="50" relative="1" as="geometry">
            <mxPoint x="80" y="150" as="sourcePoint" />
            <mxPoint x="60" y="120" as="targetPoint" />
          </mxGeometry>
        </mxCell>
        <mxCell id="gzk71SnyMcRQOthhY-ZL-5" value="" style="endArrow=none;html=1;rounded=0;" edge="1" parent="1">
          <mxGeometry width="50" height="50" relative="1" as="geometry">
            <mxPoint x="80" y="96" as="sourcePoint" />
            <mxPoint x="40" y="96" as="targetPoint" />
          </mxGeometry>
        </mxCell>
        <mxCell id="gzk71SnyMcRQOthhY-ZL-7" value="CUSTOMER" style="rounded=0;whiteSpace=wrap;html=1;" vertex="1" parent="1">
          <mxGeometry x="25" y="160" width="75" height="20" as="geometry" />
        </mxCell>
        <mxCell id="gzk71SnyMcRQOthhY-ZL-8" value="LOGIN TO GCASH APP" style="ellipse;whiteSpace=wrap;html=1;" vertex="1" parent="1">
          <mxGeometry x="210" y="10" width="140" height="40" as="geometry" />
        </mxCell>
        <mxCell id="gzk71SnyMcRQOthhY-ZL-12" value="CHECK BALANCE" style="ellipse;whiteSpace=wrap;html=1;" vertex="1" parent="1">
          <mxGeometry x="210" y="60" width="140" height="40" as="geometry" />
        </mxCell>
        <mxCell id="gzk71SnyMcRQOthhY-ZL-13" value="DEPOSIT FUNDS" style="ellipse;whiteSpace=wrap;html=1;" vertex="1" parent="1">
          <mxGeometry x="210" y="110" width="140" height="40" as="geometry" />
        </mxCell>
        <mxCell id="gzk71SnyMcRQOthhY-ZL-14" value="WITHDRAW CASH" style="ellipse;whiteSpace=wrap;html=1;" vertex="1" parent="1">
          <mxGeometry x="210" y="160" width="140" height="40" as="geometry" />
        </mxCell>
        <mxCell id="gzk71SnyMcRQOthhY-ZL-15" value="APP TRANSACTION" style="ellipse;whiteSpace=wrap;html=1;" vertex="1" parent="1">
          <mxGeometry x="210" y="210" width="140" height="40" as="geometry" />
        </mxCell>
        <mxCell id="gzk71SnyMcRQOthhY-ZL-16" value="APP TRANSACTION" style="ellipse;whiteSpace=wrap;html=1;" vertex="1" parent="1">
          <mxGeometry x="450" y="90" width="140" height="40" as="geometry" />
        </mxCell>
        <mxCell id="gzk71SnyMcRQOthhY-ZL-17" value="DIAGNOSTICS" style="ellipse;whiteSpace=wrap;html=1;" vertex="1" parent="1">
          <mxGeometry x="450" y="190" width="140" height="40" as="geometry" />
        </mxCell>
        <mxCell id="gzk71SnyMcRQOthhY-ZL-18" value="DIAGNOSTICS" style="ellipse;whiteSpace=wrap;html=1;" vertex="1" parent="1">
          <mxGeometry x="450" y="290" width="140" height="40" as="geometry" />
        </mxCell>
        <mxCell id="gzk71SnyMcRQOthhY-ZL-23" value="" style="ellipse;whiteSpace=wrap;html=1;aspect=fixed;" vertex="1" parent="1">
          <mxGeometry x="710" y="40" width="40" height="40" as="geometry" />
        </mxCell>
        <mxCell id="gzk71SnyMcRQOthhY-ZL-24" value="" style="endArrow=none;html=1;rounded=0;" edge="1" parent="1">
          <mxGeometry width="50" height="50" relative="1" as="geometry">
            <mxPoint x="730" y="120" as="sourcePoint" />
            <mxPoint x="729.5" y="80" as="targetPoint" />
          </mxGeometry>
        </mxCell>
        <mxCell id="gzk71SnyMcRQOthhY-ZL-25" value="" style="endArrow=none;html=1;rounded=0;" edge="1" parent="1">
          <mxGeometry width="50" height="50" relative="1" as="geometry">
            <mxPoint x="710" y="150" as="sourcePoint" />
            <mxPoint x="730" y="120" as="targetPoint" />
          </mxGeometry>
        </mxCell>
        <mxCell id="gzk71SnyMcRQOthhY-ZL-26" value="" style="endArrow=none;html=1;rounded=0;" edge="1" parent="1">
          <mxGeometry width="50" height="50" relative="1" as="geometry">
            <mxPoint x="750" y="150" as="sourcePoint" />
            <mxPoint x="730" y="120" as="targetPoint" />
          </mxGeometry>
        </mxCell>
        <mxCell id="gzk71SnyMcRQOthhY-ZL-27" value="" style="endArrow=none;html=1;rounded=0;" edge="1" parent="1">
          <mxGeometry width="50" height="50" relative="1" as="geometry">
            <mxPoint x="750" y="96" as="sourcePoint" />
            <mxPoint x="710" y="96" as="targetPoint" />
          </mxGeometry>
        </mxCell>
        <mxCell id="gzk71SnyMcRQOthhY-ZL-28" value="GCASH SOFTWARE ENGINEER" style="rounded=0;whiteSpace=wrap;html=1;" vertex="1" parent="1">
          <mxGeometry x="650" y="165" width="160" height="30" as="geometry" />
        </mxCell>
        <mxCell id="gzk71SnyMcRQOthhY-ZL-29" value="" style="endArrow=classic;html=1;rounded=0;" edge="1" parent="1">
          <mxGeometry width="50" height="50" relative="1" as="geometry">
            <mxPoint x="100" y="80" as="sourcePoint" />
            <mxPoint x="190" y="30" as="targetPoint" />
            <Array as="points">
              <mxPoint x="120" y="40" />
            </Array>
          </mxGeometry>
        </mxCell>
        <mxCell id="gzk71SnyMcRQOthhY-ZL-30" value="" style="endArrow=classic;html=1;rounded=0;" edge="1" parent="1">
          <mxGeometry width="50" height="50" relative="1" as="geometry">
            <mxPoint x="100" y="100" as="sourcePoint" />
            <mxPoint x="200" y="80" as="targetPoint" />
            <Array as="points" />
          </mxGeometry>
        </mxCell>
        <mxCell id="gzk71SnyMcRQOthhY-ZL-31" value="" style="html=1;labelBackgroundColor=#ffffff;startArrow=none;startFill=0;startSize=6;endArrow=classic;endFill=1;endSize=6;jettySize=auto;orthogonalLoop=1;strokeWidth=1;dashed=1;fontSize=14;rounded=0;" edge="1" parent="1">
          <mxGeometry width="60" height="60" relative="1" as="geometry">
            <mxPoint x="90" y="129.41" as="sourcePoint" />
            <mxPoint x="200" y="129.41" as="targetPoint" />
          </mxGeometry>
        </mxCell>
        <mxCell id="gzk71SnyMcRQOthhY-ZL-32" value="Include" style="edgeLabel;html=1;align=center;verticalAlign=middle;resizable=0;points=[];" vertex="1" connectable="0" parent="gzk71SnyMcRQOthhY-ZL-31">
          <mxGeometry x="0.0781" relative="1" as="geometry">
            <mxPoint as="offset" />
          </mxGeometry>
        </mxCell>
        <mxCell id="gzk71SnyMcRQOthhY-ZL-33" value="" style="endArrow=classic;html=1;rounded=0;" edge="1" parent="1">
          <mxGeometry width="50" height="50" relative="1" as="geometry">
            <mxPoint x="110" y="165" as="sourcePoint" />
            <mxPoint x="210" y="215" as="targetPoint" />
            <Array as="points" />
          </mxGeometry>
        </mxCell>
        <mxCell id="gzk71SnyMcRQOthhY-ZL-34" value="" style="html=1;labelBackgroundColor=#ffffff;startArrow=none;startFill=0;startSize=6;endArrow=classic;endFill=1;endSize=6;jettySize=auto;orthogonalLoop=1;strokeWidth=1;dashed=1;fontSize=14;rounded=0;" edge="1" parent="1">
          <mxGeometry width="60" height="60" relative="1" as="geometry">
            <mxPoint x="280" y="260" as="sourcePoint" />
            <mxPoint x="430" y="320" as="targetPoint" />
            <Array as="points">
              <mxPoint x="280" y="320" />
            </Array>
          </mxGeometry>
        </mxCell>
        <mxCell id="gzk71SnyMcRQOthhY-ZL-35" value="Extend" style="edgeLabel;html=1;align=center;verticalAlign=middle;resizable=0;points=[];" vertex="1" connectable="0" parent="gzk71SnyMcRQOthhY-ZL-34">
          <mxGeometry x="-0.7641" y="1" relative="1" as="geometry">
            <mxPoint as="offset" />
          </mxGeometry>
        </mxCell>
        <mxCell id="gzk71SnyMcRQOthhY-ZL-42" value="" style="html=1;labelBackgroundColor=#ffffff;startArrow=none;startFill=0;startSize=6;endArrow=classic;endFill=1;endSize=6;jettySize=auto;orthogonalLoop=1;strokeWidth=1;dashed=1;fontSize=14;rounded=0;" edge="1" parent="1">
          <mxGeometry width="60" height="60" relative="1" as="geometry">
            <mxPoint x="730" y="200" as="sourcePoint" />
            <mxPoint x="600" y="310" as="targetPoint" />
            <Array as="points">
              <mxPoint x="730" y="310" />
            </Array>
          </mxGeometry>
        </mxCell>
        <mxCell id="gzk71SnyMcRQOthhY-ZL-44" value="" style="endArrow=none;dashed=1;html=1;rounded=0;entryX=0.5;entryY=1;entryDx=0;entryDy=0;exitX=0.5;exitY=0;exitDx=0;exitDy=0;" edge="1" parent="1" source="gzk71SnyMcRQOthhY-ZL-17" target="gzk71SnyMcRQOthhY-ZL-16">
          <mxGeometry width="50" height="50" relative="1" as="geometry">
            <mxPoint x="540" y="210" as="sourcePoint" />
            <mxPoint x="590" y="160" as="targetPoint" />
          </mxGeometry>
        </mxCell>
        <mxCell id="gzk71SnyMcRQOthhY-ZL-45" value="Include" style="edgeLabel;html=1;align=center;verticalAlign=middle;resizable=0;points=[];" vertex="1" connectable="0" parent="gzk71SnyMcRQOthhY-ZL-44">
          <mxGeometry x="0.0167" y="-2" relative="1" as="geometry">
            <mxPoint as="offset" />
          </mxGeometry>
        </mxCell>
        <mxCell id="gzk71SnyMcRQOthhY-ZL-46" value="" style="endArrow=none;dashed=1;html=1;rounded=0;entryX=0.5;entryY=1;entryDx=0;entryDy=0;exitX=0.5;exitY=0;exitDx=0;exitDy=0;" edge="1" parent="1">
          <mxGeometry width="50" height="50" relative="1" as="geometry">
            <mxPoint x="519.58" y="290" as="sourcePoint" />
            <mxPoint x="519.58" y="230" as="targetPoint" />
          </mxGeometry>
        </mxCell>
        <mxCell id="gzk71SnyMcRQOthhY-ZL-47" value="Include" style="edgeLabel;html=1;align=center;verticalAlign=middle;resizable=0;points=[];" vertex="1" connectable="0" parent="gzk71SnyMcRQOthhY-ZL-46">
          <mxGeometry x="0.0167" y="-2" relative="1" as="geometry">
            <mxPoint as="offset" />
          </mxGeometry>
        </mxCell>
      </root>
    </mxGraphModel>
  </diagram>
</mxfile>
